<?xml version="1.0" encoding="UTF-8" standalone="no"?>
<!-- Created with Inkscape (http://www.inkscape.org/) -->

<svg
   version="1.1"
   id="svg1"
   width="358"
   height="352"
   viewBox="0 0 358 352"
   xmlns="http://www.w3.org/2000/svg"
   xmlns:svg="http://www.w3.org/2000/svg">
  <defs
     id="defs1" />
  <g
     id="g1">
    <path
       style="fill:#000000"
       d="m 161.10613,226.36263 c -4.27812,-0.83477 -8.47854,-5.40806 -9.49634,-10.33932 -0.48496,-2.34965 -0.85735,-2.92714 -4.23727,-6.571 -2.5934,-2.79593 -4.03212,-4.76833 -4.79356,-6.57168 -0.59839,-1.4172 -0.95917,-2.71638 -0.80175,-2.88707 0.15743,-0.17069 1.35801,0.36281 2.66796,1.18556 8.4579,5.31218 14.11681,7.38714 20.10807,7.37304 3.2357,-0.008 4.64904,-0.60783 5.55578,-2.35944 0.56986,-1.10084 0.55929,-1.29775 -0.11286,-2.10306 -0.90898,-1.08906 -2.2846,-1.63725 -11.61988,-4.63056 -14.60299,-4.68239 -16.47718,-5.66021 -18.68135,-9.74664 -1.92158,-3.56252 -2.29194,-8.13858 -0.69533,-8.59129 0.39111,-0.11089 4.29664,0.88535 8.67896,2.21387 4.38233,1.32852 9.47978,2.8624 11.32769,3.40862 7.31472,2.16215 10.62615,3.22309 13.49974,4.32514 3.93909,1.51067 6.77879,1.39907 7.65511,-0.30086 0.89294,-1.73216 0.28572,-3.53144 -1.98715,-5.88824 -2.75439,-2.8561 -6.58965,-4.16328 -20.00766,-6.81927 -15.83958,-3.13533 -20.08046,-4.15746 -25.62942,-6.17715 -8.81918,-3.20998 -16.24107,-8.44368 -19.51122,-13.75871 -1.272,-2.06742 -1.32346,-2.32802 -1.19098,-6.03142 0.10608,-2.96547 0.37775,-4.39898 1.1617,-6.12994 1.44387,-3.18806 6.51317,-8.7546 12.0826,-13.26777 5.01604,-4.06472 11.65402,-8.5399 12.30618,-8.29655 0.38246,0.14272 -0.80551,1.79638 -4.77221,6.64297 -4.1109,5.02279 -7.34326,11.46474 -7.71565,15.37698 -0.40087,4.21132 1.10441,6.92431 5.5505,10.00382 4.75452,3.29314 13.3644,5.8079 28.76844,8.40266 11.69835,1.97055 18.9148,4.06987 22.68303,6.59868 2.79366,1.87478 5.38539,4.73743 6.61658,7.30822 2.68195,5.60005 0.45542,18.44487 -4.55412,26.2726 -0.5297,0.82769 -2.2036,2.94546 -3.71978,4.70615 -2.24447,2.60643 -2.88869,3.7064 -3.46706,5.9198 -0.3907,1.49519 -1.43014,3.82941 -2.30987,5.18716 -2.79923,4.32023 -8.18273,6.55469 -13.35888,5.5447 z m 31.68568,-54.50526 c -1.84547,-2.08875 -5.91099,-5.25393 -8.48193,-6.60353 -2.24724,-1.17968 -2.55026,-2.07971 -0.83996,-2.49477 3.39961,-0.82503 10.69089,-3.08926 12.70432,-3.94519 3.77813,-1.60613 7.84998,-4.725 9.03774,-6.92255 2.75123,-5.09024 0.51801,-11.01733 -8.56169,-22.72324 -1.91233,-2.46545 -3.38356,-4.5839 -3.26941,-4.70768 0.72366,-0.78464 14.70157,9.48458 18.89082,13.87862 2.43602,2.5551 5.32021,6.85699 6.47372,9.65581 3.16839,7.68765 -2.72364,15.40009 -17.6793,23.14151 -2.50669,1.29752 -5.06823,2.35913 -5.69231,2.35913 -0.75443,0 -1.61971,-0.54896 -2.582,-1.63811 z"
       id="path1" />
  </g>
</svg>
